<?xml version="1.0" encoding="UTF-8"?>
<svg id="Layer_1" xmlns="http://www.w3.org/2000/svg" viewBox="0 0 176 176">
  <defs>
    <style>
      .cls-1, .cls-2 {
        fill: #666;
      }

      .cls-2 {
        stroke: #666;
        stroke-miterlimit: 10;
        stroke-width: 2px;
      }
    </style>
  </defs>
  <path class="cls-1" d="M66.02,20c-4.62-2.11-9.49-3.61-14.49-4.46-.68,1.22-1.3,2.48-1.86,3.77-5.33-.8-10.75-.8-16.09,0-.55-1.29-1.17-2.55-1.86-3.77-5.01.85-9.88,2.36-14.51,4.47-9.17,13.57-11.66,26.8-10.42,39.85h0c5.37,3.97,11.38,6.99,17.78,8.92,1.44-1.94,2.71-3.99,3.81-6.14-2.08-.78-4.08-1.74-6-2.86.5-.37,1-.74,1.47-1.11,11.25,5.29,24.28,5.29,35.54,0,.48.39.97.77,1.47,1.11-1.91,1.13-3.92,2.09-6.01,2.87,1.09,2.15,2.37,4.2,3.81,6.13,6.4-1.93,12.41-4.95,17.79-8.92h0c1.46-15.13-2.49-28.24-10.44-39.87h0ZM29.97,51.84c-3.46,0-6.33-3.15-6.33-7.01s2.76-7.04,6.32-7.04,6.39,3.17,6.33,7.04-2.79,7.01-6.32,7.01ZM53.31,51.84c-3.47,0-6.32-3.15-6.32-7.01s2.76-7.04,6.32-7.04,6.38,3.17,6.32,7.04-2.78,7.01-6.32,7.01Z"/>
  <g>
    <path class="cls-1" d="M114.63,7l-12.55,12.55v45.16h15.06v12.55l12.55-12.55h10.04l22.58-22.58V7h-47.67ZM157.29,39.62l-10.04,10.04h-10.04l-8.78,8.78v-8.78h-11.29V12.02h40.15v27.6Z"/>
    <path class="cls-1" d="M144.74,20.8h5.02v15.06h-5.02v-15.06Z"/>
    <path class="cls-1" d="M130.94,20.8h5.02v15.06h-5.02v-15.06Z"/>
  </g>
  <path class="cls-1" d="M62.16,114.58c-3.53-2.3-6.08-5.99-6.88-10.28-.17-.93-.27-1.88-.27-2.86h-11.27l-.02,45.18c-.19,5.06-4.35,9.12-9.46,9.12-1.59,0-3.08-.4-4.4-1.09-3.02-1.59-5.08-4.75-5.08-8.39,0-5.22,4.25-9.48,9.47-9.48.98,0,1.91.16,2.8.44v-11.51c-.92-.12-1.85-.2-2.8-.2-11.44,0-20.75,9.31-20.75,20.75,0,7.02,3.51,13.23,8.86,16.99,3.37,2.37,7.47,3.76,11.89,3.76,11.44,0,20.75-9.31,20.75-20.75v-22.91c4.42,3.17,9.84,5.04,15.68,5.04v-11.27c-3.15,0-6.08-.94-8.54-2.54h0Z"/>
  <path class="cls-1" d="M171.57,115.58c-.86-3.25-3.4-5.8-6.62-6.67-5.85-1.58-29.28-1.58-29.28-1.58,0,0-23.43,0-29.28,1.58-3.22.87-5.76,3.42-6.62,6.67-1.57,5.88-1.57,18.15-1.57,18.15,0,0,0,12.27,1.57,18.15.86,3.25,3.4,5.8,6.62,6.67,5.85,1.58,29.28,1.58,29.28,1.58,0,0,23.43,0,29.28-1.58,3.22-.87,5.76-3.42,6.62-6.67,1.57-5.88,1.57-18.15,1.57-18.15,0,0,0-12.27-1.57-18.15ZM128,144.87v-22.28l19.59,11.14s-19.59,11.14-19.59,11.14Z"/>
  <line class="cls-2" x1="88" x2="88" y2="176"/>
  <line class="cls-2" y1="87.56" x2="176" y2="87.56"/>
</svg>