<?xml version="1.0" encoding="UTF-8"?>
<svg id="Layer_1" xmlns="http://www.w3.org/2000/svg" viewBox="0 0 181.5 126.73">
  <defs>
    <style>
      .cls-1 {
        fill: #1c1c1c;
      }

      .cls-2 {
        fill: #666;
      }
    </style>
  </defs>
  <g>
    <path class="cls-2" d="M20.42,11.37l-1.49-5.23c-.31-1.08.25-2.22,1.29-2.64L28.57.17c1.01-.41,2.17,0,2.71.95l3.2,5.61c.39.68,1.12,1.1,1.9,1.1h6.06c.65,0,1.27-.29,1.69-.79l5.18-6.25c.64-.78,1.74-1.01,2.65-.57l6.72,3.28c.9.44,1.39,1.43,1.18,2.41l-1.16,5.61c-.14.69.05,1.4.52,1.92l4.98,5.48c.49.54,1.21.8,1.93.7l5.8-.83c.86-.12,1.71.27,2.17,1.01l4.13,6.6c.61.98.36,2.27-.58,2.94l-5.77,4.12c-.58.41-.92,1.07-.92,1.78v7.41c0,.65.29,1.27.79,1.68l5.19,4.32c.72.6.98,1.58.65,2.45l-2.4,6.39c-.37.99-1.4,1.58-2.44,1.39l-6.86-1.26c-.71-.13-1.44.1-1.95.61l-4.86,4.89c-.53.54-.75,1.31-.58,2.05l1.32,5.56c.23.95-.21,1.94-1.07,2.42l-7.6,4.22c-.97.54-2.2.26-2.85-.64l-4.18-5.86c-.41-.58-1.07-.92-1.78-.92h-7.16c-.79,0-1.51.42-1.9,1.1l-3.17,5.54c-.56.98-1.76,1.37-2.79.92l-7.32-3.25c-.95-.42-1.47-1.45-1.25-2.46l1.44-6.72c.15-.69-.05-1.42-.53-1.94l-4.43-4.83c-.52-.56-1.29-.82-2.03-.67l-6.26,1.22c-1,.2-2.01-.33-2.42-1.26l-3.27-7.35c-.46-1.03-.06-2.23.91-2.79l5.54-3.17c.68-.39,1.1-1.12,1.1-1.9v-7.08c0-.76-.39-1.46-1.03-1.86l-6.77-4.23c-.99-.62-1.32-1.9-.75-2.92l4.12-7.42c.49-.89,1.54-1.32,2.52-1.04l5.45,1.56c.76.22,1.59,0,2.15-.56l5.35-5.35c.56-.56.78-1.39.56-2.15Z"/>
    <circle class="cls-1" cx="39.9" cy="38.9" r="19.12"/>
    <circle class="cls-2" cx="39.9" cy="38.9" r="13.14"/>
  </g>
  <g>
    <path class="cls-2" d="M98.78,32.57l-1.77-6.27c-.19-.67.1-1.38.7-1.73l8.13-4.74c.64-.37,1.45-.23,1.93.33l4.86,5.67c.29.34.71.53,1.16.53h7.03c.72,0,1.34-.5,1.49-1.2l1.57-7.16c.15-.7.77-1.2,1.49-1.2h9.08c.75,0,1.39.54,1.51,1.29l1.17,7.31c.09.59.52,1.06,1.09,1.23l6.65,1.9c.49.14,1.01.03,1.4-.3l5.62-4.68c.54-.45,1.33-.47,1.89-.05l7.57,5.68c.59.44.78,1.24.45,1.9l-2.62,5.24c-.25.49-.21,1.07.1,1.53l3.77,5.66c.32.48.87.73,1.44.67l8.77-.97c.64-.07,1.25.26,1.53.83l3.72,7.44c.34.67.13,1.49-.48,1.93l-6.46,4.61c-.51.36-.75,1-.59,1.61l1.92,7.7c.13.53.54.95,1.06,1.1l6.41,1.83c.66.19,1.11.79,1.11,1.47v8.67c0,.8-.62,1.46-1.41,1.52l-7.22.54c-.57.04-1.07.4-1.29.92l-2.81,6.56c-.25.57-.12,1.24.32,1.68l5.5,5.5c.54.54.6,1.39.14,2l-5.66,7.54c-.42.56-1.18.76-1.82.49l-6.4-2.74c-.53-.23-1.14-.14-1.58.23l-5.69,4.74c-.46.39-.66,1.01-.49,1.59l1.78,6.24c.2.68-.11,1.41-.73,1.75l-8.46,4.7c-.7.39-1.57.17-2.01-.49l-3.48-5.21c-.32-.48-.89-.74-1.46-.67l-7.62.95c-.61.08-1.11.51-1.28,1.1l-1.8,6.29c-.19.66-.79,1.11-1.47,1.11h-8.85c-.81,0-1.48-.63-1.52-1.43l-.37-6.11c-.03-.51-.32-.98-.77-1.23l-6.71-3.84c-.56-.32-1.26-.25-1.75.17l-6.62,5.67c-.54.47-1.34.49-1.91.06l-7.51-5.63c-.61-.46-.79-1.3-.42-1.97l3.03-5.4c.3-.54.25-1.2-.13-1.69l-4.18-5.36c-.35-.45-.92-.67-1.48-.56l-7.49,1.39c-.68.13-1.36-.22-1.66-.85l-3.77-8c-.3-.63-.13-1.38.4-1.82l5.62-4.68c.4-.33.6-.85.54-1.36l-.96-7.69c-.08-.63-.53-1.14-1.14-1.29l-7.26-1.82c-.74-.18-1.22-.88-1.15-1.63l.93-9.26c.08-.78.73-1.38,1.52-1.38h7.03c.68,0,1.28-.45,1.47-1.11l1.85-6.48c.14-.49.03-1.01-.3-1.4l-4.75-5.7c-.42-.51-.47-1.23-.12-1.79l4.7-7.51c.4-.64,1.2-.89,1.9-.59l6.3,2.7c.53.23,1.14.14,1.58-.23l5.69-4.74c.46-.39.66-1.01.49-1.59Z"/>
    <circle class="cls-1" cx="126.53" cy="71.76" r="33.46"/>
    <circle class="cls-2" cx="126.53" cy="71.76" r="25.69"/>
  </g>
</svg>